{"title":"Futurama Season 4 High Quality DVD-Rip","uid":8424464,"size":13127508041,"categoryP":"video","categoryS":"tv_shows","magnet":"?xt=urn:btih:fcc02266931d71cd7f227cf6fb8a6cb1bc27af3f&amp;dn=Futurama+Season+4+High+Quality+DVD-Rip&amp;tr=udp%3A%2F%2Ftracker.openbittorrent.com%3A80&amp;tr=udp%3A%2F%2Fopen.demonii.com%3A1337&amp;tr=udp%3A%2F%2Ftracker.coppersurfer.tk%3A6969&amp;tr=udp%3A%2F%2Fexodus.desync.com%3A6969","seeders":0,"leechers":1,"uploader":"xkodx","files":-1,"time":1367301129,"description":"Hello everyone!\n\nFirst off let me say this is my first venture into video encoding and also uploading my own torrent.\n\nSecondly, I was very disheartened to see that my favorite cartoon of all time, Futurama was once again canceled!\n\nI decided I wanted to do some High Quality DVD-Rips of the first 4 seasons of Futurama (which were NON-HD) for myself and to share with everyone else who loves this show and is sad to see it go!!!\n\nThese videos are NOT deinterlaced!.....I was not satisfied with the quality of any of the encodes I did using the deinterlace option.\n\n\nMediainfo:\nGeneral\nComplete name                            : F:FuturamaSeason 04Futurama - S04E01 - (HQ-DVD) - Kif Gets Knocked Up a Notch.mkv\nFormat                                   : Matroska\nFormat version                           : Version 1\nFile size                                : 691 MiB\nDuration                                 : 22mn 34s\nOverall bit rate                         : 4 281 Kbps\nEncoded date                             : UTC 2013-04-23 13:59:07\nWriting library                          : WonderShare Matroska Muxer\n\nVideo\nID                                       : 1\nFormat                                   : AVC\nFormat/Info                              : Advanced Video Codec\nFormat profile                           : &lt;a class=&quot;__cf_email__&quot; href=&quot;/cdn-cgi/l/email-protection&quot; data-cfemail=&quot;afedcedccac3c6c1caefe39c819f&quot;&gt;[email&amp;#160;protected]&lt;/a&gt;&lt;script data-cfhash='f9e31' type=&quot;text/javascript&quot;&gt;\n/* &lt;![CDATA[ */!function(){try{var t=&quot;currentScript&quot;in document?document.currentScript:function(){for(var t=document.getElementsByTagName(&quot;script&quot;),e=t.length;e--;)if(t[e].getAttribute(&quot;data-cfhash&quot;))return t[e]}();if(t&amp;&amp;t.previousSibling){var e,r,n,i,c=t.previousSibling,a=c.getAttribute(&quot;data-cfemail&quot;);if(a){for(e=&quot;&quot;,r=parseInt(a.substr(0,2),16),n=2;a.length-n;n+=2)i=parseInt(a.substr(n,2),16)^r,e+=String.fromCharCode(i);e=document.createTextNode(e),c.parentNode.replaceChild(e,c)}t.parentNode.removeChild(t);}}catch(u){}}()/* ]]&gt; */&lt;/script&gt;\nFormat settings, CABAC                   : No\nFormat settings, ReFrames                : 1 frame\nCodec ID                                 : V_MPEG4/ISO/AVC\nDuration                                 : 22mn 34s\nBit rate                                 : 4 004 Kbps\nWidth                                    : 720 pixels\nHeight                                   : 480 pixels\nDisplay aspect ratio                     : 3:2\nFrame rate mode                          : Constant\nFrame rate                               : 29.970 fps\nOriginal frame rate                      : 29.000 fps\nStandard                                 : NTSC\nColor space                              : YUV\nChroma subsampling                       : 4:2:0\nBit depth                                : 8 bits\nScan type                                : Progressive\nBits/(Pixel*Frame)                       : 0.387\nStream size                              : 646 MiB (94%)\nDefault                                  : Yes\nForced                                   : No\n\nAudio\nID                                       : 2\nFormat                                   : AC-3\nFormat/Info                              : Audio Coding 3\nMode extension                           : CM (complete main)\nFormat settings, Endianness              : Big\nCodec ID                                 : A_AC3\nDuration                                 : 22mn 34s\nBit rate mode                            : Constant\nBit rate                                 : 192 Kbps\nChannel(s)                               : 2 channels\nChannel positions                        : Front: L R\nSampling rate                            : 48.0 KHz\nBit depth                                : 16 bits\nCompression mode                         : Lossy\nDelay relative to video                  : 21ms\nStream size                              : 31.0 MiB (4%)\nDefault                                  : Yes\nForced                                   : No\n\n\n\n\n\n\n\nAgain, this was my first time with all this stuff but I have an open ear to any tips or suggestions from anyone toward future encoding, or torrent uploading.\n\nI will be seeding for at least a month straight!\n\nThanks for checking this out!","torrent":{"xt":"urn:btih:fcc02266931d71cd7f227cf6fb8a6cb1bc27af3f","amp;dn":"Futurama+Season+4+High+Quality+DVD-Rip","amp;tr":["udp%3A%2F%2Ftracker.openbittorrent.com%3A80","udp%3A%2F%2Fopen.demonii.com%3A1337","udp%3A%2F%2Ftracker.coppersurfer.tk%3A6969","udp%3A%2F%2Fexodus.desync.com%3A6969"],"infoHash":"fcc02266931d71cd7f227cf6fb8a6cb1bc27af3f","infoHashBuffer":{"type":"Buffer","data":[252,192,34,102,147,29,113,205,127,34,124,246,251,138,108,177,188,39,175,63]},"announce":[],"urlList":[]}}